<?xml version="1.0" standalone="no"?>
<!DOCTYPE svg PUBLIC "-//W3C//DTD SVG 1.1//EN" "http://www.w3.org/Graphics/SVG/1.1/DTD/svg11.dtd">
<svg xmlns="http://www.w3.org/2000/svg">
<metadata>Generated by Fontastic.me</metadata>
<defs>
<font id="cyza" horiz-adv-x="512">
<font-face font-family="cyza" units-per-em="512" ascent="480" descent="-32"/>
<missing-glyph horiz-adv-x="512" />

<glyph glyph-name="bell" unicode="&#97;" d="M501 98c0 0-16 12-16 12-38 28-55 74-59 99-1 10-2 22-3 37-2 14-2 31-2 48 0 105-44 165-130 179 0 8-4 16-10 22-7 6-15 9-25 9-10 0-18-3-25-9-7-6-10-14-11-22-85-16-129-76-129-179 0-14 0-27-1-39-1-12-2-23-3-33 0-9-2-17-5-26-3-14-14-46-34-65l-12-11c-2-2-36-31-36-31l512 0z m-422 21c9 11 17 22 22 33 15 31 22 78 22 142 0 57 15 99 45 124 23 18 52 28 88 28 36 0 65-10 88-28 30-26 45-68 45-124 0-80 15-139 44-175z m105-46c0 0 1-28 24-48 14-12 30-17 48-17 18 0 34 5 48 17 25 20 24 48 24 48z"/>
<glyph glyph-name="cart" unicode="&#98;" d="M135 75c-11 0-20-4-27-11-7-8-11-16-11-27 0-10 4-19 11-26 7-7 16-11 27-11 10 0 19 4 26 11 7 7 11 16 11 26 0 11-4 20-11 27-7 7-16 11-26 11z m282 0c-10 0-19-4-26-11-8-8-11-16-11-27 0-10 3-19 11-26 7-7 16-11 26-11 10 0 19 4 26 11 7 7 11 16 11 26 0 11-4 20-11 27-7 7-16 11-26 11z m-268 91l-5 31 339 60 22 174-412 40c-3 11-9 19-15 25l-1 0c-13 11-34 16-63 16l-7 0 0-34 7 0c29 0 38-5 41-7 2-2 5-6 7-17l54-294c3-17 9-32 18-45l0 0c11-13 24-20 41-20l309 0 0 34-309 0c-12 0-21 12-26 37z m318 233l-13-112-316-56-38 205z"/>
<glyph glyph-name="inbox" unicode="&#99;" d="M245 267l21 0 0 59 60 0 0 20-60 0 0 60-21 0 0-60-59 0 0-20 59 0z m261 42l0-3-3 0 0 3 3 0 3 4-77 66-1-2 0 45c0 21-18 38-39 38l-54 0-45 38c-21 18-56 18-78-1l-43-37-51 0c-22 0-39-17-39-38l0-41-79-69 3-4-5 0 0-257c0-28 23-50 51-50l407 0c29 0 52 22 52 50l0 258z m-75 34l47-40-47-39z m-197 133c11 10 30 10 41 0l20-16-80 0z m-124-54c0 5 5 10 11 10l206 0 1 0 0 0 64 0c6 0 11-5 11-10l0-181-60-49-48 37c-22 17-57 17-80 0l-46-37-59 49z m-28-79l0-79-47 38z m-53-72l117-96-117-92z m431-242l-408 0c-12 0-21 8-23 19l203 158c13 10 34 10 46 0l205-158c-2-11-11-19-23-19z m23 55l-118 90 118 97z m20 222l3 0 0 3-3 0z"/>
<glyph glyph-name="home" unicode="&#100;" d="M404 66c0-6-5-11-11-11l-288 0c-6 0-11 5-11 11l0 148 167 148-20 23-180-158 5-6-3 0 0-155c0-23 19-43 42-43l288 0c23 0 42 20 42 43l0 157-31 0z m-115 408c-24 20-61 20-84-1l-83-73 0 36-44 0 0-75-78-68 21-24 205 180c11 11 31 11 42 1l224-188 20 24z"/>
<glyph glyph-name="marker" unicode="&#101;" d="M256 268c21 0 40 8 55 23 16 16 24 34 24 55 0 21-8 39-24 55-15 15-34 23-55 23-21 0-40-8-55-23-16-15-24-34-24-55 0-21 8-39 24-54 15-16 34-24 55-24z m0 122c13 0 23-4 32-12 8-9 12-19 12-32 0-12-4-23-12-31-9-8-19-12-32-12-13 0-23 4-32 12-8 9-12 19-12 31 0 13 4 23 12 32 9 8 19 12 32 12z m118 73c-32 32-72 49-118 49-46 0-86-17-119-49-32-32-48-71-48-117 0-37 15-87 45-147 29-60 54-103 71-128 18-25 33-46 45-62l6-9 46 65c27 37 54 84 80 140 27 56 41 104 41 141 0 46-16 85-49 117z m-118 16c38 0 70-13 95-39 26-25 39-57 39-94 0-46-26-114-76-200-22-36-41-67-58-90-17 23-36 54-58 90-50 86-76 153-76 200 0 38 12 69 39 94 25 26 57 39 95 39z"/>
<glyph glyph-name="dashboard" unicode="&#102;" d="M49 275l137 0c27 0 49 22 49 49l0 137c0 27-22 49-49 49l-137 0c-27 0-49-22-49-49l0-137c0-27 22-49 49-49z m-17 186c0 10 8 18 17 18l137 0c10 0 18-8 18-18l0-137c0-9-8-17-18-17l-137 0c-9 0-17 8-17 17l0 137z m292-185l137 0c27 0 49 22 49 49l0 137c0 27-22 49-49 49l-137 0c-27 0-49-22-49-49l0-137c0-27 22-49 49-49z m-17 186c0 9 8 17 17 17l137 0c10 0 17-7 17-17l0-137c0-10-7-17-17-17l-137 0c-9 0-17 7-17 17l0 137z m-119-226l-137 0c-27 0-49-22-49-49l0-137c0-27 22-49 49-49l137 0c27 0 49 22 49 49l0 137c0 27-22 49-49 49z m17-186c0-9-8-17-17-17l-137 0c-10 0-17 7-17 17l0 137c0 10 7 17 17 17l137 0c9 0 17-7 17-17l0-137z m258 187l-137 0c-27 0-49-22-49-49l0-137c0-27 22-49 49-49l137 0c27 0 49 22 49 49l0 137c0 27-22 49-49 49z m17-186c0-10-8-18-17-18l-137 0c-10 0-18 8-18 18l0 137c0 9 8 17 18 17l137 0c9 0 17-8 17-17z"/>
<glyph glyph-name="hamburger" unicode="&#103;" d="M4 457l508 0 0-61-508 0z m-4-172l508 0 0-60-508 0z m4-169l508 0 0-61-508 0z"/>
<glyph glyph-name="profile" unicode="&#104;" d="M176 245c2-11 5-19 8-27l1-1c3-5 6-11 11-16 0-1 1-1 1-1 2-5 3-11 4-17l0-2c2-10 4-21 5-31 1-6 2-12 3-17 1-3 1-5 1-7 2-15 5-35 24-42 5-2 10-2 14-2 2 0 3 0 5 0 3 0 7 0 10 0 1 0 3 0 4 0 4 0 7 0 10 1 14 3 23 14 26 33 2 12 4 23 6 34 1 9 3 17 4 26 0 2 1 5 1 7 1 6 2 12 3 16 1 1 3 2 4 3 2 2 3 5 4 6l1 1c8 13 13 28 14 46 1 8 1 16 1 25 0 3 0 7 0 10l0 35c0 16-3 25-9 35-8 12-20 20-35 24 18 13 29 35 29 58 0 10-2 19-6 29-12 25-35 41-63 41-1 0-1 0-2 0-33-1-54-22-63-42-6-14-7-30-3-45 4-17 14-32 28-41-13-4-24-11-32-21-4-6-9-15-10-28-1-8-1-15-1-22 0-3 1-6 1-9 0-4 0-9-1-14 0-15 0-32 2-45z m41 214c3 5 13 25 39 25l0 0c25 0 36-17 39-25 3-5 4-11 4-17 0-21-12-34-24-39-9-4-19-5-28-3-16 3-28 15-32 31-2 9-1 20 2 28z m-15-145c-1 6-1 13 0 19 0 7 4 12 5 14 6 7 17 12 31 13 4 0 8 1 13 1 4 0 7 0 11 0 3 0 7 0 10 0 18 0 31-6 37-15 4-5 5-9 5-21l0-34c0-4 0-7 0-11 0-8 0-16 0-23-1-13-5-24-11-33l0 0c0-1-1-2-2-3-1-1-4-3-7-7-4-8-5-17-6-27-1-2-1-4-1-6-2-9-3-18-4-26-2-11-4-22-6-34-1-4-2-11-5-11-1-1-2-1-4-1-1 0-3 0-4 0-2 0-4 0-6 0-2 0-3 0-5 0-1 0-3 0-4 0-4 0-5 1-5 1-3 1-5 12-6 20-1 3-1 5-1 8-1 5-2 11-3 17-2 10-4 21-6 31l0 2c-1 9-3 18-6 25-2 5-5 7-7 8 0 0 0 0 0 0-2 2-4 6-5 9l-1 1c-3 5-4 11-6 18-2 12-1 27-1 41 0 5 0 10 0 15 0 2 0 5 0 9z m222-88l-3 4-29-13 4-6c27-37 27-82 0-119-21-29-55-50-96-59-14-3-29-5-44-5-27 0-54 6-78 16-37 17-64 43-76 74-11 32-6 64 14 93l4 6-29 12-2-4c-26-35-32-76-18-115 14-39 47-71 92-91 29-12 61-19 93-19 18 0 35 2 52 6 50 11 91 36 116 71 33 47 33 102 0 149z"/>
<glyph glyph-name="previous" unicode="&#105;" d="M292 476c-121 0-219-99-219-220 0-4 0-8 0-13l-52 60-21-18 92-104 92 104-21 18-61-69c-1 7-2 15-2 22 0 106 87 192 192 192 106 0 192-86 192-192 0-106-86-192-192-192-56 0-109 24-146 67l-21-18c42-48 103-77 167-77 121 0 219 99 219 220 1 121-98 220-219 220z m-13-108l0-130 1 0-1-1 63-62 20 20-56 54 0 119z"/>
<glyph glyph-name="next" unicode="&#106;" d="M350 301l-21-18 92-104 91 104-20 18-55-63c0 6 0 12 0 18 0 121-98 219-218 219-121 0-219-98-219-219 0-121 98-219 219-219 64 0 124 28 166 77l-21 17c-36-43-89-67-145-67-106 0-192 86-192 192 0 106 86 192 192 192 105 0 191-86 191-192 0-8 0-15-1-23z m-216-32l0-27 89 0 0 1 1 0 92 92-19 19-84-85z"/>
<glyph glyph-name="invite" unicode="&#108;" d="M511 309c0 1-1 3-2 4l-217 185c-21 18-55 18-76 0l-213-187c0 0-1 0-1-1 0 0-1-1-1-2l0 0c0 0 0-1 0-1l0-256c0-28 23-50 51-50l408 0c28 0 51 22 51 50z m-146-135l119 97 0-189z m-131 304c11 9 30 9 41 0l204-175-136-112-49 38c-22 17-56 16-77 0l-48-38-135 111z m-87-304l-119-92 0 190z m313-147l-408 0c-12 0-22 9-24 21l0 0 205 159c12 9 33 9 44 0l207-159c-2-12-12-21-24-21z"/>
<glyph glyph-name="filter" unicode="&#109;" d="M105 246l0 266-36 0 0-266c-29-7-51-34-51-65 0-31 21-56 49-65l0-116 40 0 0 117c27 9 47 34 47 64 0 31-21 57-49 65z m-19-99c-19 0-35 15-35 34 0 19 16 35 35 35 19 0 34-16 34-35 0-19-15-34-34-34z m187 249l0 116-36 0 0-116c-28-9-49-34-49-65 0-31 21-57 49-65l0-266 36 0 0 265c29 8 51 35 51 66 0 31-22 57-51 65z m-17-100c-19 0-35 16-35 35 0 19 16 34 35 34 19 0 34-15 34-34 0-19-15-35-34-35z m238-132c0 31-21 57-49 65l0 283-36 0 0-282c-29-8-51-35-51-66 0-30 21-56 49-65l0-99 40 0 0 100c27 9 47 34 47 64z m-68-34c-19 0-35 15-35 34 0 19 16 35 35 35 19 0 34-16 34-35 0-19-15-34-34-34z"/>
<glyph glyph-name="cash" unicode="&#110;" d="M127 279l-43-48c-1 8-1 17-1 25 0 96 77 174 173 174 43 0 84-16 116-45 2-2 4-4 6-6l19 18c-3 3-5 5-7 7-37 33-85 52-134 52-110 0-200-90-200-200 0-8 1-16 2-25l-42 48-16-14 71-81 71 81z m142-146l0 27c17 2 30 7 40 17 9 9 14 22 14 38 0 16-5 29-14 38-10 9-25 17-45 25-11 4-18 9-22 13-4 5-7 10-7 18 0 7 2 13 6 18 4 4 10 6 18 6 7 0 13-3 18-8 4-6 7-15 7-25l39 0 0 0c0 18-4 32-13 43-10 11-22 18-38 21l0 29-22 0 0-29c-17-2-30-8-40-17-9-10-14-23-14-38 0-17 5-29 14-38 10-10 25-18 45-25 11-4 18-9 22-13 4-5 7-11 7-18 0-8-3-14-7-18-4-4-11-7-19-7-9 0-16 3-22 8-5 5-8 14-8 26l-39 0 0 0c-1-20 5-35 16-46 11-10 25-16 42-18l0-27z m172 162l-71-81 15-14 43 49c-3-93-79-166-173-166-50 0-98 22-131 61l-20-18c38-44 93-70 152-70 52 0 101 20 138 56 37 36 59 84 61 135l41-47 16 14z"/>
<glyph glyph-name="cart-add-outline" unicode="&#111;" d="M231 340l57-57 58 57-41 0 0 170-32 0 0-170z m-96-265c-11 0-20-4-27-11-7-8-11-16-11-27 0-10 4-19 11-26 7-7 16-11 27-11 10 0 19 4 26 11 7 7 11 16 11 26 0 10-4 19-11 27-7 7-16 11-26 11z m282 0c-10 0-19-4-27-11-7-8-10-16-10-27 0-10 3-19 10-26 8-7 17-11 27-11 10 0 19 4 26 11 8 7 11 16 11 26 0 10-3 19-11 27-7 7-16 11-26 11z m-268 91l-5 31 340 60 21 173-169 17 0-35 131-13-12-113-317-55-38 206 138-14 0 34-145 14c-3 11-9 19-16 25l0 0c-13 11-34 16-63 16l-7 0 0-34 7 0c29 0 38-5 42-7 1-2 4-6 6-17l55-294c2-17 8-32 17-45l0 0c11-13 25-20 41-20l309 0 0 34-309 0c-12 0-21 12-26 37z"/>
<glyph glyph-name="plus-circle" unicode="&#107;" d="M256 512c-141 0-256-115-256-256 0-141 115-256 256-256 141 0 256 115 256 256 0 141-115 256-256 256z m0-480c-123 0-224 101-224 224 0 123 101 224 224 224 123 0 224-101 224-224 0-123-101-224-224-224z m19 345l-39 0 0-101-101 0 0-39 101 0 0-102 39 0 0 102 102 0 0 39-102 0z"/>
<glyph glyph-name="followers" unicode="&#112;" d="M246 241c36 0 67 13 92 38 26 25 38 56 38 92 0 36-12 68-38 93-25 25-56 38-92 38-36 0-67-13-93-38-25-26-38-57-38-93 0-36 13-67 38-92 26-25 57-38 93-38z m-71 201c19 20 43 29 71 29 28 0 51-9 71-29 20-19 29-43 29-71 0-28-9-51-29-71-20-19-43-29-71-29-28 0-52 10-71 29-20 20-29 43-29 71 0 28 9 52 29 71z m156-346c0 28 9 56 26 79l13 18-21 6c-35 10-70 14-103 14-50 0-103-11-157-33-59-23-89-56-89-97l0-73 359 0-12 22c-10 20-16 42-16 64z m-21-55l-280 0 0 42c0 28 24 51 70 70 51 20 100 30 146 30 24 0 49-3 75-8-13-24-20-51-20-79 0-19 3-38 9-55z m202 78l-97 0 35 31-20 22-76-67 76-67 20 23-32 27 94 0z"/>
<glyph glyph-name="following" unicode="&#113;" d="M235 491c-34 0-64-12-88-36-24-25-36-54-36-89 0-34 12-64 36-88 24-24 54-36 88-36 35 0 64 12 89 36 24 24 36 54 36 88 0 35-12 64-36 89-25 24-54 36-89 36z m68-192c-19-19-41-28-68-28-27 0-49 9-68 28-18 18-28 40-28 67 0 27 10 49 28 68 19 19 41 28 68 28 27 0 49-9 68-28 19-19 28-41 28-68 0-27-9-49-28-67z m51-103l-20 5c-34 10-67 14-99 14-47 0-98-10-150-31-56-23-85-54-85-94l0-69 343 0-11 21c-10 19-15 40-15 60 0 28 8 54 25 77z m-57-146l-268 0 0 40c0 27 22 49 67 67 48 19 95 29 139 29 23 0 47-2 72-8-13-23-19-49-19-75 0-18 3-36 9-53z m142 126l-19-22 30-26-89 0 0-29 92 0-33-30 19-22 73 65z"/>
<glyph glyph-name="glasses" unicode="&#114;" d="M129 326c-13 0-54-2-72-23-12-15-9-41-7-49 3-19 9-43 30-56 15-10 32-10 49-10 44 0 71 34 78 57 9 28 10 44 4 54-14 20-53 27-82 27z m71-79c-6-20-31-52-71-52-16 0-31 0-45 8-18 12-24 34-27 52-3 14-2 33 6 43 12 15 42 21 66 21 30 0 65-8 76-24 5-8 3-23-5-48z m307 80c-14 7-77 16-89 17-8 1-24 2-35 2-27 0-54-5-74-12-15-6-33-9-52-9-21 0-39 3-52 8-20 8-48 13-76 13-11 0-27-1-35-2-12-1-75-10-89-17-9-5-3-21-1-27l2-3 2 1c1 0 2 0 3 0 6 0 12-4 14-10l0 0c0 0 0-2 0-4l0 0c0 0 0 0 0 0 0 0 0 0 0-1l0 0c0-8 0-23 1-31 5-25 13-56 40-73 20-13 42-13 63-13 32 0 54 14 68 25 16 14 29 32 34 50 4 11 7 20 8 29 0 0 0 1 0 1 1 1 1 3 1 4 2 11 9 12 16 12 8 0 14-5 16-14 1-1 1-3 1-4 0 0 0-1 0-1l1 0c1-8 4-17 7-27 5-18 18-36 34-49 14-12 37-25 68-25 21 0 44 0 63 12 27 18 36 49 40 73 1 9 1 23 1 31l0 1c0 0 0 0 0 0l0 0c0 2 0 4 0 4l1 0c1 6 7 10 13 10 1 0 2 0 3 0l3-1 1 3c2 6 8 22-1 27z m-5-22c0 0-1 0-1 0-9 0-18-6-21-15 0-1-1-3 0-6l0 0c0-1 0-1 0-1l0 0c0-8 0-22-1-29-4-24-12-53-37-69-18-12-39-12-59-12-54 0-87 43-96 70-3 10-5 19-7 27 0 2 0 3-1 5 0 0 0 0 0 0-3 12-12 19-23 19-14 0-22-7-23-22-2-9-5-18-8-29-9-27-42-69-96-69-20 0-41 0-59 11-25 16-32 45-36 69-2 7-1 21-1 29l0 0c0 0 0 1 0 1 0 0 0 0 0 0 0 3-1 5-1 6-3 9-12 16-22 15-3 8-4 15-2 16 11 5 66 14 87 16 8 1 25 2 34 2 27 0 55-5 74-13 15-5 33-8 54-8 19 0 36 3 51 8l0 0c1 0 3 1 4 1 0 0 1 0 1 1 18 6 44 11 70 11 9 0 26-1 34-2 21-2 76-11 87-16 2-1 1-8-2-16z m-118 21c-30 0-69-7-82-27-6-10-5-26 4-54 7-23 34-57 78-57 16 0 33 0 48 10 21 13 28 37 31 56 1 7 4 34-8 49-17 21-59 23-71 23z m72-71c-3-18-9-40-28-52-13-8-29-8-44-8-40 0-65 32-72 52-8 25-9 40-4 48 11 16 46 24 76 24 24 0 53-6 66-21 8-10 8-29 6-43z"/>
<glyph glyph-name="shop" unicode="&#115;" d="M87 460l326 0c12 0 21 10 21 21l0 1c0 12-9 21-21 21l-326 0c-12 0-21-9-21-21l0-1c0-12 9-21 21-21z m424-142l-30 79c-1 20-17 36-38 36l-374 0c-20 0-37-16-38-35l-30-80c-3-8 1-18 10-22l5-2c5-1 10-1 14 1l0-263c0-13 10-23 23-23l256 0 0 213 122 0 0-213 24 0c13 0 23 10 23 23l0 266c5-4 12-6 18-4l5 2c9 4 13 13 10 22z m-382-23l9 62 57 0-11-70c-1-13-14-22-27-21l-8 2c-13 2-22 14-20 27z m-75-24l-8 3c-9 3-16 12-16 21 3 2 6 5 8 9l21 55c3-1 6-2 10-2l40 0-24-71c-4-12-18-19-31-15z m207-210l-176 0 0 161 176 0z m-2 209l-8 0c-14 0-24 11-24 24l0 63 56 0 0-63c0-13-11-24-24-24z m99 0l-8-1c-13-2-25 8-27 21l-9 68 57 0 8-61c2-13-8-25-21-27z m101 4l-8-2c-13-4-27 4-30 17l-18 68 40 0c3 0 7 1 10 2l20-55c1-2 2-3 3-5 2-11-6-22-17-25z"/>
<glyph glyph-name="comment" unicode="&#116;" d="M512 172l0-152-105 104z m-488 320l464 0c13 0 24-10 24-23l0-325c0-13-11-24-24-24l-464 0c-13 0-24 11-24 24l0 325c0 13 11 23 24 23z"/>
<glyph glyph-name="description" unicode="&#117;" d="M380 283c5 0 10 0 14-1l0 208c0 12-10 22-22 22l-342 0c-12 0-22-10-22-22l0-393c0-12 10-22 22-22l201 0c-5 16-8 33-8 50 0 87 70 158 157 158z m-321 133l284 0 0-45-284 0z m0-100l208 0 0-45-208 0z m142-142l-142 0 0 45 142 0z m185 63c-66 0-119-53-119-118 0-66 53-119 119-119 65 0 118 53 118 119 0 65-53 118-118 118z m4-156c2-1 3-1 6-1 2 0 3 0 3 0 1 0 2 1 2 1 0-3 0-6-2-8-1-2-2-4-4-6-2-1-4-2-6-3-2-1-4-1-7-1-2 0-5 0-7 1-2 1-4 2-6 4-2 1-3 4-4 6-1 3-1 6-1 10 0 1 0 3 0 5 0 2 1 4 1 6l12 56 25 0-12-59c-1-1-1-2-1-3 0-1 0-2 0-3 0-2 0-4 1-5z m17 88c-1-1-2-3-3-4-1-1-3-2-4-3-2-1-4-1-6-1-2 0-4 0-5 1-2 1-3 2-5 3-1 1-2 3-3 4 0 2-1 4-1 6 0 1 1 3 1 5 1 2 2 3 3 4 2 2 3 3 5 3 1 1 3 2 5 2 2 0 4-1 6-2 1 0 3-1 4-3 1-1 2-2 3-4 1-2 1-4 1-5 0-2 0-4-1-6z"/>
<glyph glyph-name="info" unicode="&#118;" d="M256 512c-141 0-256-115-256-256 0-141 115-256 256-256 141 0 256 115 256 256 0 141-115 256-256 256z m10-336c2-2 6-3 12-3 2-1 5 0 7 0 2 1 3 1 5 2-1-6-2-12-5-17-2-5-6-9-9-13-4-3-9-5-13-7-10-3-21-3-31 1-5 1-9 4-13 8-3 4-6 9-8 14-2 6-3 13-3 20 0 4 0 8 1 12 0 4 1 8 2 13l25 121 55 0-27-128c-1-2-1-4-1-6-1-2-1-4-1-6 0-6 2-9 4-11z m36 189c-2-3-4-6-7-9-3-3-6-5-9-6-8-3-16-3-24 0-3 1-7 3-9 6-3 3-5 6-7 9-3 8-3 16 0 24 2 3 4 7 7 9 2 3 6 5 9 7 8 3 16 3 24 0 7-3 13-9 16-16 3-8 3-16 0-24z"/>
<glyph glyph-name="cart-checkout" unicode="&#119;" d="M128 64c-15 0-27-10-31-24-4-14 3-28 15-36 13-7 28-5 39 5 9 9 12 23 7 35-5 12-17 20-30 20z m299 0c-16 0-29-11-31-26-3-15 5-30 19-35 14-6 30-1 38 11 9 13 7 30-4 41-6 6-14 9-22 9z m85 363l-433 42c-4 13-9 22-16 28-13 10-34 15-63 15l0-21c26 0 42-3 49-10 4-3 7-10 10-21l57-312c2-16 8-31 17-44 10-12 22-19 38-19l320 0 0 22-320 0c-17 0-29 15-35 45l-7 40 362 64z m-136-99l-48-50c-2-3-6-5-10-5-4 0-7 2-10 5-6 6-6 15 0 21l23 24-103 0c-4 0-8 2-10 5-6 6-6 15 0 21 2 3 6 4 10 4l103 0-23 24c-6 6-6 16 0 22 5 5 15 5 20 0l48-50c3-3 4-7 4-11 0-4-1-7-4-10z"/>
<glyph glyph-name="cart-add" unicode="&#120;" d="M427 64c-16 0-29-11-31-26-3-15 5-30 19-35 14-6 30-1 38 11 9 13 7 30-4 41-6 6-14 9-22 9z m-299 0c-15 0-27-10-31-24-4-14 3-28 15-36 13-7 28-5 39 5 9 9 12 23 7 35-5 12-17 20-30 20z m384 363l-433 42c-4 13-9 22-16 28-13 10-34 15-63 15l0-21c26 0 42-3 49-10 4-3 7-10 10-21l57-312c2-16 8-31 17-44 10-12 22-19 38-19l320 0 0 22-320 0c-17 0-29 15-35 45l-7 40 362 64z m-143-99c-3-3-6-5-10-4l-54 0 0-55c0-3-1-7-4-9-5-5-14-5-19 0-3 2-4 6-4 9l0 55-55 0c-3-1-6 1-9 4-5 5-5 13 0 19 3 2 6 4 9 4l55 0 0 54c0 4 1 7 4 9 5 5 14 5 19 0 3-2 4-5 4-9l0-54 54 0c4 0 7-2 10-4 5-6 5-14 0-19z"/>
<glyph glyph-name="fullscreen" unicode="&#121;" d="M38 357l0 116 116 0 0 38-154 0 0-154z m0-202l-38 0 0-154 154 0 0 38-116 0z m436 0l0-116-116 0 0-38 154 0 0 154z m0 202l38 0 0 154-154 0 0-38 116 0z"/>
</font>
</defs>
</svg>
